<svg width="136" height="159" viewBox="0 0 136 159" fill="none" xmlns="http://www.w3.org/2000/svg">
<path d="M99.0078 10.9922L63.2057 17.1588C28.4838 17.1588 0.507808 45.1348 0.507809 79.8568C0.507811 114.579 28.4838 142.356 63.2057 142.356L99.0078 148.992L135.626 158.626L135.626 0.492288L99.0078 10.9922Z" fill="white"/>
<mask id="path-2-outside-1" maskUnits="userSpaceOnUse" x="88.1792" y="59.7583" width="23" height="40" fill="black">
<rect fill="white" x="88.1792" y="59.7583" width="23" height="40"/>
<path d="M108.971 79.7679C108.972 79.9756 108.89 80.1749 108.743 80.3219L91.5262 97.5386C91.2154 97.8389 90.7199 97.8302 90.4196 97.5194C90.1267 97.2161 90.1267 96.7353 90.4196 96.4321L107.082 79.768L90.4181 63.1054C90.1072 62.8051 90.0986 62.3097 90.3989 61.9988C90.6991 61.6879 91.1945 61.6793 91.5054 61.9795C91.512 61.9859 91.5184 61.9922 91.5247 61.9988L108.741 79.2154C108.888 79.3618 108.971 79.5605 108.971 79.7679Z"/>
</mask>
<path d="M108.971 79.7679C108.972 79.9756 108.89 80.1749 108.743 80.3219L91.5262 97.5386C91.2154 97.8389 90.7199 97.8302 90.4196 97.5194C90.1267 97.2161 90.1267 96.7353 90.4196 96.4321L107.082 79.768L90.4181 63.1054C90.1072 62.8051 90.0986 62.3097 90.3989 61.9988C90.6991 61.6879 91.1945 61.6793 91.5054 61.9795C91.512 61.9859 91.5184 61.9922 91.5247 61.9988L108.741 79.2154C108.888 79.3618 108.971 79.5605 108.971 79.7679Z" fill="#B3B0B0"/>
<path d="M108.971 79.7679L110.971 79.7644L110.971 79.7629L108.971 79.7679ZM108.743 80.3219L110.157 81.7362L110.158 81.7347L108.743 80.3219ZM91.5262 97.5386L92.9158 98.9771L92.9282 98.9651L92.9404 98.9528L91.5262 97.5386ZM90.4196 97.5194L88.9809 98.9087L88.9812 98.909L90.4196 97.5194ZM90.4196 96.4321L89.0053 95.018L88.9931 95.0302L88.9811 95.0426L90.4196 96.4321ZM107.082 79.768L108.497 81.1821L109.911 79.7678L108.496 78.3537L107.082 79.768ZM90.4181 63.1054L91.8322 61.6911L91.82 61.6789L91.8076 61.6669L90.4181 63.1054ZM90.3989 61.9988L88.9604 60.6092L88.9601 60.6096L90.3989 61.9988ZM91.5054 61.9795L92.8952 60.5413L92.8947 60.5408L91.5054 61.9795ZM91.5247 61.9988L90.0864 63.3885L90.0983 63.4009L90.1105 63.413L91.5247 61.9988ZM108.741 79.2154L107.327 80.6296L107.329 80.6317L108.741 79.2154ZM106.971 79.7714C106.971 79.4486 107.099 79.1383 107.327 78.9091L110.158 81.7347C110.681 81.2116 110.973 80.5026 110.971 79.7644L106.971 79.7714ZM107.329 78.9077L90.112 96.1244L92.9404 98.9528L110.157 81.7362L107.329 78.9077ZM90.1366 96.1002C90.6205 95.6327 91.3912 95.6466 91.8581 96.1298L88.9812 98.909C90.0486 100.014 91.8102 100.045 92.9158 98.9771L90.1366 96.1002ZM91.8583 96.1301C92.3137 96.6017 92.314 97.3496 91.8582 97.8216L88.9811 95.0426C87.9395 96.121 87.9397 97.8305 88.9809 98.9087L91.8583 96.1301ZM91.8339 97.8463L108.497 81.1821L105.668 78.3538L89.0053 95.018L91.8339 97.8463ZM108.496 78.3537L91.8322 61.6911L89.0039 64.5196L105.668 81.1822L108.496 78.3537ZM91.8076 61.6669C92.2912 62.1341 92.3044 62.9046 91.8376 63.388L88.9601 60.6096C87.8929 61.7148 87.9232 63.4761 89.0285 64.5438L91.8076 61.6669ZM91.8373 63.3883C91.3701 63.8719 90.5996 63.8851 90.1162 63.4183L92.8947 60.5408C91.7894 59.4736 90.0281 59.5039 88.9604 60.6092L91.8373 63.3883ZM90.1157 63.4178C90.106 63.4084 90.0962 63.3987 90.0864 63.3885L92.9629 60.609C92.9405 60.5858 92.9179 60.5633 92.8952 60.5413L90.1157 63.4178ZM90.1105 63.413L107.327 80.6296L110.156 77.8011L92.9389 60.5846L90.1105 63.413ZM107.329 80.6317C107.101 80.4037 106.972 80.0947 106.971 79.7728L110.971 79.7629C110.97 79.0264 110.676 78.3199 110.153 77.799L107.329 80.6317Z" fill="#9E9C9C" mask="url(#path-2-outside-1)"/>
</svg>
