<svg width="1364" height="449" viewBox="0 0 1364 449" fill="none" xmlns="http://www.w3.org/2000/svg">
<path d="M0 218.054C37.8889 265.023 65.0689 321.531 227.333 449C307.242 177.896 443.305 367.633 519.083 321.531C594.861 274.562 597.905 287.912 673.683 252.631C749.461 218.649 833.556 253.24 909.333 300.208C985.111 346.31 1060.89 415.573 1136.67 427.044C1212.44 439.381 1288.22 391.764 1326.11 369.47L1364 346.31V0H1326.11C1288.22 0 1212.44 0 1136.67 0C1060.89 0 985.111 0 909.333 0C833.556 0 757.778 0 682 0C606.222 0 530.444 0 454.667 0C378.889 0 303.111 0 227.333 0C151.556 0 75.7778 0 37.8889 0H0V218.054Z" fill="url(#paint0_linear)"/>
<defs>
<linearGradient id="paint0_linear" x1="682" y1="10" x2="682" y2="449" gradientUnits="userSpaceOnUse">
<stop stop-color="#6139C8"/>
<stop offset="0.354167" stop-color="#385BC8"/>
<stop offset="0.84375" stop-color="#702CC8"/>
</linearGradient>
</defs>
</svg>
