<svg width="1174" height="429" viewBox="0 0 1174 429" fill="none" xmlns="http://www.w3.org/2000/svg">
<path d="M0.000994847 218.027C17.6444 267.967 0.000843814 218.027 46.0468 346.268C114.825 75.1969 381.555 367.588 446.777 321.491C511.999 274.528 514.619 287.876 579.841 252.6C645.064 218.622 717.444 253.208 782.667 300.171C847.889 346.268 913.111 415.521 978.333 426.991C1043.56 439.327 1108.78 391.715 1141.39 369.424L1174 346.268V0H1141.39C1108.78 0 1043.56 0 978.333 0C913.111 0 847.889 0 782.667 0C717.444 0 652.222 0 587 0C521.778 0 456.555 0 391.333 0C326.111 0 260.889 0 195.667 0C130.444 0 65.2222 0 32.6111 0H0L0.000994847 218.027Z" fill="url(#paint0_linear)"/>
<defs>
<linearGradient id="paint0_linear" x1="554.293" y1="-53.9933" x2="554.293" y2="384.952" gradientUnits="userSpaceOnUse">
<stop stop-color="#6139C8"/>
<stop offset="0.354167" stop-color="#385BC8"/>
<stop offset="0.84375" stop-color="#702CC8"/>
</linearGradient>
</defs>
</svg>
